<svg xmlns="http://www.w3.org/2000/svg" width="175" height="175" fill="none" viewBox="0 0 175 175"><circle cx="1.642" cy="1.642" r="1.642" fill="#1A2236"/><circle cx="1.642" cy="26.173" r="1.642" fill="#1A2236"/><circle cx="1.642" cy="50.704" r="1.642" fill="#1A2236"/><circle cx="1.642" cy="75.235" r="1.642" fill="#1A2236"/><circle cx="1.642" cy="99.766" r="1.642" fill="#1A2236"/><circle cx="1.642" cy="124.296" r="1.642" fill="#1A2236"/><circle cx="1.642" cy="148.827" r="1.642" fill="#1A2236"/><circle cx="1.642" cy="173.358" r="1.642" fill="#1A2236"/><circle cx="26.173" cy="1.642" r="1.642" fill="#1A2236"/><circle cx="26.173" cy="26.173" r="1.642" fill="#1A2236"/><circle cx="26.173" cy="50.704" r="1.642" fill="#1A2236"/><circle cx="26.173" cy="75.235" r="1.642" fill="#1A2236"/><circle cx="26.173" cy="99.766" r="1.642" fill="#1A2236"/><circle cx="26.173" cy="124.296" r="1.642" fill="#1A2236"/><circle cx="26.173" cy="148.827" r="1.642" fill="#1A2236"/><circle cx="26.173" cy="173.358" r="1.642" fill="#1A2236"/><circle cx="50.704" cy="1.642" r="1.642" fill="#1A2236"/><circle cx="50.704" cy="26.173" r="1.642" fill="#1A2236"/><circle cx="50.704" cy="50.704" r="1.642" fill="#1A2236"/><circle cx="50.704" cy="75.235" r="1.642" fill="#1A2236"/><circle cx="50.704" cy="99.766" r="1.642" fill="#1A2236"/><circle cx="50.704" cy="124.296" r="1.642" fill="#1A2236"/><circle cx="50.704" cy="148.827" r="1.642" fill="#1A2236"/><circle cx="50.704" cy="173.358" r="1.642" fill="#1A2236"/><circle cx="75.235" cy="1.642" r="1.642" fill="#1A2236"/><circle cx="75.235" cy="26.173" r="1.642" fill="#1A2236"/><circle cx="75.235" cy="50.704" r="1.642" fill="#1A2236"/><circle cx="75.235" cy="75.235" r="1.642" fill="#1A2236"/><circle cx="75.235" cy="99.766" r="1.642" fill="#1A2236"/><circle cx="75.235" cy="124.296" r="1.642" fill="#1A2236"/><circle cx="75.235" cy="148.827" r="1.642" fill="#1A2236"/><circle cx="75.235" cy="173.358" r="1.642" fill="#1A2236"/><circle cx="99.765" cy="1.642" r="1.642" fill="#1A2236"/><circle cx="99.765" cy="26.173" r="1.642" fill="#1A2236"/><circle cx="99.765" cy="50.704" r="1.642" fill="#1A2236"/><circle cx="99.765" cy="75.235" r="1.642" fill="#1A2236"/><circle cx="99.765" cy="99.766" r="1.642" fill="#1A2236"/><circle cx="99.765" cy="124.296" r="1.642" fill="#1A2236"/><circle cx="99.765" cy="148.827" r="1.642" fill="#1A2236"/><circle cx="99.765" cy="173.358" r="1.642" fill="#1A2236"/><circle cx="124.296" cy="1.642" r="1.642" fill="#1A2236"/><circle cx="124.296" cy="26.173" r="1.642" fill="#1A2236"/><circle cx="124.296" cy="50.704" r="1.642" fill="#1A2236"/><circle cx="124.296" cy="75.235" r="1.642" fill="#1A2236"/><circle cx="124.296" cy="99.766" r="1.642" fill="#1A2236"/><circle cx="124.296" cy="124.296" r="1.642" fill="#1A2236"/><circle cx="124.296" cy="148.827" r="1.642" fill="#1A2236"/><circle cx="124.296" cy="173.358" r="1.642" fill="#1A2236"/><circle cx="148.827" cy="1.642" r="1.642" fill="#1A2236"/><circle cx="148.827" cy="26.173" r="1.642" fill="#1A2236"/><circle cx="148.827" cy="50.704" r="1.642" fill="#1A2236"/><circle cx="148.827" cy="75.235" r="1.642" fill="#1A2236"/><circle cx="148.827" cy="99.766" r="1.642" fill="#1A2236"/><circle cx="148.827" cy="124.296" r="1.642" fill="#1A2236"/><circle cx="148.827" cy="148.827" r="1.642" fill="#1A2236"/><circle cx="148.827" cy="173.358" r="1.642" fill="#1A2236"/><circle cx="173.358" cy="1.642" r="1.642" fill="#1A2236"/><circle cx="173.358" cy="26.173" r="1.642" fill="#1A2236"/><circle cx="173.358" cy="50.704" r="1.642" fill="#1A2236"/><circle cx="173.358" cy="75.235" r="1.642" fill="#1A2236"/><circle cx="173.358" cy="99.766" r="1.642" fill="#1A2236"/><circle cx="173.358" cy="124.296" r="1.642" fill="#1A2236"/><circle cx="173.358" cy="148.827" r="1.642" fill="#1A2236"/><circle cx="173.358" cy="173.358" r="1.642" fill="#1A2236"/></svg>